<?xml version="1.0" standalone="no"?><!DOCTYPE svg PUBLIC "-//W3C//DTD SVG 1.1//EN" "http://www.w3.org/Graphics/SVG/1.1/DTD/svg11.dtd"><svg t="1765689092890" class="icon" viewBox="0 0 1025 1024" version="1.1" xmlns="http://www.w3.org/2000/svg" p-id="1679" xmlns:xlink="http://www.w3.org/1999/xlink" width="200.1953125" height="200"><path d="M874.034942 874.024207c-199.927559 199.967769-524.117926 199.967769-724.089783 0-199.926877-199.929603-199.926877-524.11997 0-724.046848 199.971176-199.969813 524.162225-199.969813 724.089783 0C1074.003392 349.904918 1074.003392 674.094603 874.034942 874.024207zM223.155062 223.142965c-150.9976 150.956709-158.825576 390.570046-24.067992 551.061264L367.490092 605.801889l-72.875277 0-20.736707 78.662772L185.883921 684.464661 297.52969 342.117834l103.441592 0 56.593006 173.608496 96.027983-96.02662L553.592271 342.117834l77.57915 0 143.087842-143.043543C613.725108 64.276498 374.151981 72.146728 223.155062 223.142965zM384.52272 542.295512l-7.705301-28.983137c-9.65991-34.063893-18.864562-75.040476-28.568771-109.980126l-1.913036 0c-8.66216 35.854936-18.365687 75.916233-27.567614 109.980126l-7.705301 28.983137L384.52272 542.295512zM690.471436 411.910581l-50.344119 50.388418 0 155.411145 11.576353 0c58.007848 0 99.068258-25.233397 99.068258-106.56365C750.771928 449.555878 727.161238 421.779719 690.471436 411.910581zM837.098428 265.286315l-91.864558 91.906131c58.341794 22.362139 93.986821 71.168061 93.986821 153.953366 0 118.973506-72.499076 172.734101-177.354829 172.734101L553.592271 683.879914 553.592271 548.79111l-64.254689 64.296944 23.235171 71.375925L421.708671 684.463979l-0.748312-3.000065-155.661945 155.621054c160.157954 121.80728 389.401915 109.978081 535.612496-36.229092C947.117401 654.649383 958.902982 425.404059 837.098428 265.286315z" fill="#ffffff" p-id="1680"></path></svg>